<svg width="64" height="64" viewBox="0 0 64 64" fill="none" xmlns="http://www.w3.org/2000/svg">
<path d="M52.8317 28.985H10.4082C9.02574 28.985 7.905 30.1057 7.905 31.4883V31.7518C7.905 33.1343 9.02574 34.255 10.4082 34.255H52.8317C54.2143 34.255 55.335 33.1343 55.335 31.7518V31.4883C55.335 30.1057 54.2143 28.985 52.8317 28.985Z" fill="#231F20"/>
<path d="M52.8317 42.16H10.4082C9.02574 42.16 7.905 43.2807 7.905 44.6633V44.9267C7.905 46.3093 9.02574 47.43 10.4082 47.43H52.8317C54.2143 47.43 55.335 46.3093 55.335 44.9267V44.6633C55.335 43.2807 54.2143 42.16 52.8317 42.16Z" fill="#231F20"/>
<path d="M52.8317 15.81H10.4082C9.02574 15.81 7.905 16.9307 7.905 18.3133V18.5768C7.905 19.9593 9.02574 21.08 10.4082 21.08H52.8317C54.2143 21.08 55.335 19.9593 55.335 18.5768V18.3133C55.335 16.9307 54.2143 15.81 52.8317 15.81Z" fill="#231F20"/>
</svg>
