<svg width="64" height="64" viewBox="0 0 64 64" fill="none" xmlns="http://www.w3.org/2000/svg">
<path d="M52.7 31.1721C52.0012 31.1721 51.3309 31.4497 50.8368 31.9438C50.3426 32.438 50.065 33.1082 50.065 33.8071V48.484C50.065 48.9033 49.8984 49.3054 49.6019 49.6019C49.3054 49.8984 48.9033 50.065 48.484 50.065H14.756C14.3367 50.065 13.9346 49.8984 13.6381 49.6019C13.3416 49.3054 13.175 48.9033 13.175 48.484V14.756C13.175 14.3367 13.3416 13.9346 13.6381 13.6381C13.9346 13.3416 14.3367 13.175 14.756 13.175H39.9729C40.6718 13.175 41.342 12.8974 41.8362 12.4032C42.3303 11.9091 42.6079 11.2388 42.6079 10.54C42.6079 9.84116 42.3303 9.17093 41.8362 8.67677C41.342 8.18262 40.6718 7.905 39.9729 7.905H14.756C12.9411 7.91194 11.2026 8.63597 9.91928 9.91928C8.63597 11.2026 7.91194 12.9411 7.905 14.756V48.484C7.91194 50.2989 8.63597 52.0374 9.91928 53.3207C11.2026 54.604 12.9411 55.3281 14.756 55.335H48.484C50.2989 55.3281 52.0374 54.604 53.3207 53.3207C54.604 52.0374 55.3281 50.2989 55.335 48.484V33.8071C55.335 33.1082 55.0574 32.438 54.5632 31.9438C54.0691 31.4497 53.3988 31.1721 52.7 31.1721V31.1721Z" fill="black"/>
<path d="M28.2472 28.985C27.7527 28.5403 27.1084 28.299 26.4435 28.3096C25.7785 28.3201 25.1422 28.5817 24.6621 29.0418C24.1819 29.5019 23.8935 30.1266 23.8547 30.7905C23.8159 31.4544 24.0296 32.1084 24.4528 32.6213L30.3025 38.7608C30.5474 39.0178 30.8417 39.2226 31.1677 39.3629C31.4937 39.5033 31.8448 39.5763 32.1997 39.5777C32.5528 39.5798 32.9027 39.5108 33.2286 39.3751C33.5545 39.2393 33.8498 39.0393 34.0969 38.7872L51.9622 20.3422C52.2044 20.0931 52.3952 19.7986 52.5237 19.4758C52.6521 19.1529 52.7157 18.8079 52.7108 18.4604C52.7059 18.113 52.6326 17.7699 52.4951 17.4508C52.3576 17.1316 52.1587 16.8427 51.9095 16.6005C51.6604 16.3583 51.366 16.1675 51.0431 16.0391C50.7202 15.9106 50.3752 15.847 50.0277 15.8519C49.6803 15.8568 49.3372 15.9301 49.0181 16.0676C48.699 16.2051 48.41 16.4041 48.1678 16.6532L32.2261 33.1483L28.2472 28.985Z" fill="black"/>
</svg>
