<svg width="64" height="64" viewBox="0 0 64 64" fill="none" xmlns="http://www.w3.org/2000/svg">
<path d="M10.54 21.08C11.9953 21.08 13.175 19.9003 13.175 18.445C13.175 16.9897 11.9953 15.81 10.54 15.81C9.08473 15.81 7.905 16.9897 7.905 18.445C7.905 19.9003 9.08473 21.08 10.54 21.08Z" fill="#231F20"/>
<path d="M10.54 34.255C11.9953 34.255 13.175 33.0753 13.175 31.62C13.175 30.1647 11.9953 28.985 10.54 28.985C9.08473 28.985 7.905 30.1647 7.905 31.62C7.905 33.0753 9.08473 34.255 10.54 34.255Z" fill="#231F20"/>
<path d="M10.54 47.43C11.9953 47.43 13.175 46.2503 13.175 44.795C13.175 43.3397 11.9953 42.16 10.54 42.16C9.08473 42.16 7.905 43.3397 7.905 44.795C7.905 46.2503 9.08473 47.43 10.54 47.43Z" fill="#231F20"/>
<path d="M52.8581 28.985H20.9219C19.5539 28.985 18.445 30.0939 18.445 31.4619V31.7781C18.445 33.1461 19.5539 34.255 20.9219 34.255H52.8581C54.2261 34.255 55.335 33.1461 55.335 31.7781V31.4619C55.335 30.0939 54.2261 28.985 52.8581 28.985Z" fill="#231F20"/>
<path d="M52.8581 42.16H20.9219C19.5539 42.16 18.445 43.2689 18.445 44.6369V44.9531C18.445 46.3211 19.5539 47.43 20.9219 47.43H52.8581C54.2261 47.43 55.335 46.3211 55.335 44.9531V44.6369C55.335 43.2689 54.2261 42.16 52.8581 42.16Z" fill="#231F20"/>
<path d="M52.8581 15.81H20.9219C19.5539 15.81 18.445 16.9189 18.445 18.2869V18.6031C18.445 19.9711 19.5539 21.08 20.9219 21.08H52.8581C54.2261 21.08 55.335 19.9711 55.335 18.6031V18.2869C55.335 16.9189 54.2261 15.81 52.8581 15.81Z" fill="#231F20"/>
</svg>
