<svg width="45" height="32" viewBox="0 0 45 32" fill="none" xmlns="http://www.w3.org/2000/svg">
<path d="M22.3981 21.0792C29.2604 21.0792 35.1199 22.1672 35.1199 26.5207C35.1199 30.8724 29.298 32 22.3981 32C15.5357 32 9.67618 30.9121 9.67618 26.5603C9.67618 22.2068 15.4981 21.0792 22.3981 21.0792ZM33.3701 18.4578C35.9937 18.4091 38.8142 18.7694 39.8564 19.0251C42.0645 19.4592 43.5168 20.3454 44.1186 21.6333C44.6271 22.6906 44.6271 23.9172 44.1186 24.9727C43.1981 26.9703 40.2307 27.6115 39.0774 27.7772C38.8393 27.8133 38.6476 27.6061 38.6727 27.3666C39.2619 21.8314 34.5754 19.2071 33.363 18.6037C33.311 18.5766 33.3003 18.5352 33.3057 18.51C33.3093 18.492 33.3307 18.4632 33.3701 18.4578ZM11.1372 18.454L11.6312 18.4585C11.6706 18.4639 11.6903 18.4927 11.6939 18.5089C11.6992 18.5359 11.6885 18.5756 11.6384 18.6044C10.4242 19.2078 5.73766 21.8321 6.32683 27.3655C6.3519 27.6068 6.16208 27.8122 5.9239 27.778C4.77062 27.6122 1.80326 26.971 0.882785 24.9735C0.372405 23.9162 0.372405 22.6913 0.882785 21.634C1.4845 20.3461 2.93505 19.46 5.14311 19.0241C6.18715 18.7701 9.00588 18.4098 11.6312 18.4585L11.1372 18.454ZM22.3981 0C27.0703 0 30.8166 3.76454 30.8166 8.4657C30.8166 13.1651 27.0703 16.9332 22.3981 16.9332C17.7258 16.9332 13.9795 13.1651 13.9795 8.4657C13.9795 3.76454 17.7258 0 22.3981 0ZM33.8268 1.41179C38.3396 1.41179 41.8836 5.68247 40.6766 10.4395C39.8618 13.642 36.9124 15.7693 33.6262 15.6828C33.2967 15.6738 32.9726 15.6432 32.6592 15.5891C32.4318 15.5495 32.3172 15.2919 32.4461 15.101C33.6997 13.2458 34.4142 11.0141 34.4142 8.61845C34.4142 6.11836 33.6334 3.78759 32.2778 1.8765C32.2348 1.81706 32.2025 1.7252 32.2455 1.65676C32.2813 1.60092 32.3476 1.5721 32.4103 1.55769C32.8669 1.46403 33.3361 1.41179 33.8268 1.41179ZM11.1719 1.41161C11.6625 1.41161 12.1317 1.46385 12.5902 1.55751C12.6511 1.57192 12.7191 1.60254 12.7549 1.65658C12.7961 1.72502 12.7657 1.81688 12.7227 1.87632C11.3671 3.78741 10.5863 6.11818 10.5863 8.61827C10.5863 11.0139 11.3008 13.2456 12.5544 15.1008C12.6833 15.2918 12.5687 15.5493 12.3413 15.589C12.0261 15.6448 11.7037 15.6736 11.3742 15.6826C8.08809 15.7691 5.13863 13.6419 4.32382 10.4393C3.11502 5.68229 6.65903 1.41161 11.1719 1.41161Z" fill="white"/>
</svg>
