<svg width="65" height="64" viewBox="0 0 65 64" fill="none" xmlns="http://www.w3.org/2000/svg">
<path d="M19.1667 36C21.3758 36 23.1667 34.2091 23.1667 32C23.1667 29.7909 21.3758 28 19.1667 28C16.9575 28 15.1667 29.7909 15.1667 32C15.1667 34.2091 16.9575 36 19.1667 36Z" fill="black"/>
<path d="M32.5 36C34.7091 36 36.5 34.2091 36.5 32C36.5 29.7909 34.7091 28 32.5 28C30.2909 28 28.5 29.7909 28.5 32C28.5 34.2091 30.2909 36 32.5 36Z" fill="black"/>
<path d="M45.8333 36C48.0425 36 49.8333 34.2091 49.8333 32C49.8333 29.7909 48.0425 28 45.8333 28C43.6242 28 41.8333 29.7909 41.8333 32C41.8333 34.2091 43.6242 36 45.8333 36Z" fill="black"/>
</svg>
