<svg width="35" height="40" viewBox="0 0 35 40" fill="none" xmlns="http://www.w3.org/2000/svg">
<path d="M17.4695 0C23.607 0 28.5454 4.82957 28.5454 10.792V13.8587C31.9901 14.9339 34.5 18.0523 34.5 21.7768V31.6506C34.5 36.2616 30.6773 40 25.9644 40H9.0376C4.32271 40 0.5 36.2616 0.5 31.6506V21.7768C0.5 18.0523 3.01189 14.9339 6.45457 13.8587V10.792C6.4749 4.82957 11.4133 0 17.4695 0ZM17.4898 22.7686C16.5143 22.7686 15.7218 23.5437 15.7218 24.4977V28.9099C15.7218 29.8837 16.5143 30.6588 17.4898 30.6588C18.4857 30.6588 19.2782 29.8837 19.2782 28.9099V24.4977C19.2782 23.5437 18.4857 22.7686 17.4898 22.7686ZM17.5102 3.47809C13.3846 3.47809 10.0314 6.73755 10.0111 10.7523V13.4274H24.9889V10.792C24.9889 6.75743 21.6357 3.47809 17.5102 3.47809Z" fill="#D53939"/>
</svg>
