<svg width="20" height="20" viewBox="0 0 20 20" fill="none" xmlns="http://www.w3.org/2000/svg">
<g clip-path="url(#clip0_1_10)">
<path d="M10 0C15.523 0 20 4.477 20 10C20 15.523 15.523 20 10 20C4.477 20 0 15.523 0 10C0 4.477 4.477 0 10 0ZM10 1.395C7.71781 1.395 5.5291 2.3016 3.91535 3.91535C2.3016 5.5291 1.395 7.71781 1.395 10C1.395 12.2822 2.3016 14.4709 3.91535 16.0847C5.5291 17.6984 7.71781 18.605 10 18.605C12.2822 18.605 14.4709 17.6984 16.0847 16.0847C17.6984 14.4709 18.605 12.2822 18.605 10C18.605 7.71781 17.6984 5.5291 16.0847 3.91535C14.4709 2.3016 12.2822 1.395 10 1.395V1.395ZM12.048 3.488C12.6981 3.73383 13.3061 4.07929 13.85 4.512C13.975 4.608 14.095 4.71 14.213 4.819C14.235 4.838 14.254 4.858 14.275 4.879C14.603 5.182 14.901 5.523 15.165 5.889C15.202 5.94 15.241 5.987 15.275 6.036C15.339 6.13 15.399 6.228 15.459 6.326C15.5622 6.49129 15.6573 6.66149 15.744 6.836C15.797 6.936 15.844 7.045 15.893 7.151C15.926 7.224 15.963 7.299 15.993 7.377C16.066 7.559 16.131 7.742 16.19 7.929C16.209 7.991 16.224 8.057 16.242 8.119C16.3434 8.4748 16.4154 8.83837 16.457 9.206C16.464 9.272 16.474 9.342 16.479 9.407C16.499 9.622 16.512 9.839 16.512 10.057C16.5107 10.483 16.4716 10.908 16.395 11.327C16.381 11.4 16.369 11.474 16.355 11.544C16.315 11.734 16.269 11.92 16.215 12.104C15.706 11.871 15.108 11.528 14.952 11.151C14.668 10.471 13.912 10.131 13.604 9.255C13.097 7.805 13.77 7.843 13.864 6.943C13.908 6.521 13.604 6.433 13.203 6.605C12.267 6.998 11.95 6.847 11.761 6.142C11.572 5.439 11.761 5.243 11.761 5.243C11.123 5.313 11.099 4.536 11.43 4.34C11.66 4.208 11.855 3.803 12.048 3.488V3.488ZM9.374 7.797C9.964 7.527 10.509 7.43 10.437 6.966C10.367 6.507 10.201 6.165 9.279 6.165C8.357 6.165 8.759 7.43 8.003 6.675C7.247 5.925 8.168 6.119 8.546 5.948C8.925 5.776 9.303 5.071 8.641 5.021C7.98 4.974 8.121 5.313 7.601 5.121C7.081 4.925 6.845 5.8 6.513 5.678C6.295 5.596 5.71 5.146 5.322 4.703C4.53027 5.39163 3.90348 6.24945 3.488 7.213C3.601 8.52 4.292 9.206 4.292 9.206C4.292 9.206 4.647 10.057 6.775 11.103C6.775 11.103 7.175 11.127 6.703 10.642C6.231 10.155 5.71 9.547 6.301 9.232C6.891 8.913 7.058 8.94 7.2 9.525C7.341 10.109 7.815 9.765 7.861 9.206C7.909 8.649 8.783 8.066 9.374 7.796V7.797ZM8.924 10.737C9.942 10.737 9.847 11.054 10.651 11.762C11.454 12.466 11.029 13.171 10.626 13.707C10.225 14.241 9.87 14.847 9.681 15.945C9.491 17.039 8.995 16.259 8.831 15.992C8.665 15.723 8.405 15.481 8.477 14.362C8.547 13.244 7.79 13.902 7.531 12.442C7.271 10.984 7.909 10.738 8.925 10.738L8.924 10.737ZM13.901 11.701C14.172 11.528 14.821 11.979 14.681 12.454C14.538 12.929 14.09 12.661 13.865 12.454C13.64 12.248 13.628 11.871 13.901 11.701V11.701Z" fill="#4ECB71"/>
</g>
<defs>
<clipPath id="clip0_1_10">
<rect width="20" height="20" fill="white"/>
</clipPath>
</defs>
</svg>
